<svg id="레이어_1" data-name="레이어 1" xmlns="http://www.w3.org/2000/svg" viewBox="0 0 252.83 89.01"><defs><style>.cls-1{fill:#d35e43;}</style></defs><path class="cls-1" d="M31.31,26.55H25.22V53.44l10.55,2.27,9.51-2.09V48.69l-9.51,2.08-4.46-1ZM61.2,33.39,50.15,35.8V53.29L61.2,55.71l11-2.42V35.8Zm0,17.46-5-1.08V39.33l5-1.08,5,1.08V49.77Zm17.56-10.8,9-1.95,5.08,1v3.13l-5.47-.61-9.76,2v9.69L88,55.71l10.87-2.34V35.73l-11-2.34-9,2Zm8.64,6,5.47.61V50L88,51l-4.35-1V46.78Zm17.22,7.27,10.84,2.38,11.08-2.42V25.11h-6v9.36l-5.07-1.08-10.84,2.34Zm6-3.53V39.25l4.83-1,5.07,1.08V49.77l-5.07,1.08ZM132.3,34.11V55h6V34.11Zm0-9v5.47h6V25.11ZM165.1,55V35.69l-10.51-2.3-10.51,2.3V55h6V39.22l4.5-1,4.5,1V55Zm16.61-16.78,5.08,1.08V49.77l-5.08,1.08-4.82-1V39.25Zm-9.39,25.52L181,65.61l11.81-2.49V35.76l-11.09-2.41-10.83,2.38V53.37l10.83,2.34,5.08-1.08v4.89L181,60.75l-8.67-1.88ZM199.45,55h5.47V49.87h-5.47Zm13,0h5.47V49.87h-5.47Zm13,0H231V49.87h-5.47Z"/></svg>