<svg id="레이어_1" data-name="레이어 1" xmlns="http://www.w3.org/2000/svg" viewBox="0 0 91.35 89.01"><defs><style>.cls-1{fill:#d35e43;}</style></defs><path class="cls-1" d="M38.52,32.89l-12-2.6-12,2.6V57.58l12,2.59,1.58-.36,1.37,2.78h6.05l-1.94-4,4.89-1.05ZM23.69,50.63l2.16,4.47L20.7,54V36.52l5.87-1.29,5.87,1.29V54l-1,.21-1.73-3.53Zm23.18-3.16H56.3l3.6,1.58v5.22l-5,1.08L44.46,52.94V57.8L54.9,60.17,66,57.76V46.21L61.92,45,66,43.72v-11L54.9,30.29l-9.72,2.16v4.94l9.72-2.27,5,1.08v4.68l-3.6,1.58H46.87Zm26,12H78.3V54.34H72.83Z"/></svg>