<svg id="레이어_1" data-name="레이어 1" xmlns="http://www.w3.org/2000/svg" viewBox="0 0 119.06 89.01"><defs><style>.cls-1{fill:#d35e43;}</style></defs><path class="cls-1" d="M38.83,31.67l-3.75-3.38H25.51l-3.89,3.38v6.59l3.85,3.39h1.91v2.84h-7v4.39H40.7V44.49H33.14V41.65h1.91l3.78-3.39Zm9.61,8.5h3.92V35.45H48.44V27.68h-5.9V52h5.9ZM24,50.93v8.5l12.57,2.7,12.49-2.77V54.43L36.6,57.2l-6.3-1.41V50.93Zm9-14.47-1.12,1H28.5l-1.12-1v-2.7l1.12-1H32l1.12,1Zm41.57,4.32h-3l-3.78-4.32V28.18H61.79v8.28L58,40.78H55.35v4.68h5.94l3.53-4,3.52,4h6.3Zm4.61,5.15h6.09V27.68H79.25v5.79H72.77v4.65h6.48Zm-.11,9.61-1.18,1H67.52l-1.19-1V53.45l1.19-1H78l1.18,1Zm-18.9,2.09L64.6,61.3H80.87l4.36-3.67V51.37l-4.36-3.68H64.6l-4.36,3.68Zm32,1.94h5.47V54.46H92.21Zm0-8.6h5.47V29.69H92.21Z"/></svg>