<svg width="29" height="30" viewBox="0 0 29 30" fill="none" xmlns="http://www.w3.org/2000/svg">
<path d="M12.5289 18.3369C12.1165 18.3369 11.7051 18.18 11.3903 17.8653L10.7598 17.2347C8.47641 14.9513 8.5616 11.1523 10.9488 8.76405L17.8654 1.84751C20.2526 -0.539722 24.0527 -0.624906 26.336 1.65845L26.9666 2.28902C29.2499 4.57237 29.1647 8.37138 26.7775 10.7597L25.3304 12.2067C24.7019 12.8352 23.6818 12.8352 23.0533 12.2067C22.4248 11.5782 22.4248 10.5581 23.0533 9.92962L24.5004 8.48253C25.6317 7.3502 25.7169 5.59458 24.6895 4.56717L24.0589 3.9366C23.0315 2.9092 21.2748 2.99438 20.1425 4.12567L13.226 11.0422C12.0936 12.1745 12.0095 13.9312 13.0369 14.9586L13.6675 15.5892C14.2959 16.2177 14.2959 17.2378 13.6675 17.8663C13.3527 18.179 12.9403 18.3369 12.5289 18.3369Z" fill="black"/>
<path d="M6.34981 29.8492C4.8622 29.8492 3.39745 29.2987 2.28902 28.1913L1.65845 27.5617C-0.624906 25.2784 -0.539722 21.4794 1.84751 19.0911L3.29461 17.644C3.9231 17.0155 4.94323 17.0155 5.57172 17.644C6.20022 18.2725 6.20022 19.2926 5.57172 19.9211L4.12567 21.3682C3.5647 21.9292 3.24266 22.6564 3.21877 23.4147C3.19696 24.1357 3.45147 24.7995 3.93556 25.2846L4.56614 25.9141C5.59354 26.9416 7.3502 26.8564 8.48253 25.7251L15.3991 18.8085C15.96 18.2476 16.2821 17.5204 16.306 16.762C16.3278 16.0411 16.0733 15.3773 15.5892 14.8921L14.9586 14.2616C14.3301 13.6331 14.3301 12.6129 14.9586 11.9845C15.5871 11.356 16.6072 11.356 17.2357 11.9845L17.8663 12.615C18.9851 13.7338 19.5741 15.2422 19.5253 16.8597C19.4765 18.4408 18.821 19.9409 17.6772 21.0846L10.7607 28.0012C9.53071 29.2301 7.92676 29.8492 6.34981 29.8492Z" fill="black"/>
</svg>
