<svg width="23" height="29" viewBox="0 0 23 29" fill="none" xmlns="http://www.w3.org/2000/svg">
<path d="M9.83143 16.1572C9.83143 16.707 10.2778 17.1534 10.8276 17.1534C11.3775 17.1534 11.8239 16.707 11.8239 16.1572C11.8239 15.6073 11.3775 15.1664 10.8276 15.1664C10.2778 15.161 9.83143 15.6073 9.83143 16.1572Z" fill="black" fill-opacity="0.3"/>
<path d="M1.97603 16.1571C1.97603 16.8322 2.52041 17.3766 3.19544 17.3766C3.87047 17.3766 4.41485 16.8322 4.41485 16.1571C4.41485 15.4821 3.87047 14.9377 3.19544 14.9377C2.52041 14.9377 1.97603 15.4821 1.97603 16.1571Z" fill="black" fill-opacity="0.3"/>
<path d="M5.90652 16.1572C5.90652 16.7669 6.40191 17.2568 7.00617 17.2568C7.61587 17.2568 8.10581 16.7614 8.10581 16.1572C8.10581 15.5475 7.61043 15.0575 7.00617 15.0575C6.40191 15.0575 5.90652 15.5475 5.90652 16.1572Z" fill="black" fill-opacity="0.3"/>
<path d="M7.87174 18.0625C7.87174 18.6395 8.3399 19.1077 8.91694 19.1077C9.49398 19.1077 9.96215 18.6395 9.96215 18.0625C9.96215 17.4854 9.49398 17.0173 8.91694 17.0173C8.3399 17.0173 7.87174 17.4854 7.87174 18.0625Z" fill="black" fill-opacity="0.3"/>
<path d="M3.94132 18.0625C3.94132 18.4599 4.14274 18.8137 4.45304 19.0206C4.63813 19.1458 4.86132 19.2166 5.10085 19.2166C5.18251 19.2166 5.25872 19.2111 5.33493 19.1948C5.86298 19.0859 6.26038 18.6177 6.26038 18.0625C6.26038 17.5018 5.86298 17.0336 5.33493 16.9247C5.25872 16.9084 5.18251 16.9029 5.10085 16.9029C4.86132 16.9029 4.63813 16.9737 4.45304 17.0989C4.14274 17.3112 3.94132 17.6651 3.94132 18.0625Z" fill="black" fill-opacity="0.3"/>
<path d="M5.90652 12.3411C5.90652 12.9508 6.40191 13.4407 7.00617 13.4407C7.61587 13.4407 8.10581 12.9453 8.10581 12.3411C8.10581 11.7314 7.61043 11.2414 7.00617 11.2414C6.40191 11.2414 5.90652 11.7314 5.90652 12.3411Z" fill="black" fill-opacity="0.3"/>
<path d="M9.83143 12.3411C9.83143 12.8909 10.2778 13.3373 10.8276 13.3373C11.3775 13.3373 11.8239 12.8909 11.8239 12.3411C11.8239 11.7912 11.3775 11.3449 10.8276 11.3449C10.2778 11.3503 9.83143 11.7912 9.83143 12.3411Z" fill="black" fill-opacity="0.3"/>
<path d="M0.103382 13.751C0.0380565 13.9034 -4.92246e-05 14.0722 -4.92403e-05 14.2518C-4.93022e-05 14.9595 0.576993 15.5366 1.28469 15.5366C1.99238 15.5366 2.56942 14.9595 2.56942 14.2518C2.56942 14.0722 2.53131 13.9034 2.46599 13.751C2.40066 13.5986 2.30812 13.457 2.18835 13.3427C1.95427 13.1086 1.63309 12.9671 1.27924 12.9671C0.925394 12.9671 0.604212 13.1086 0.370129 13.3427C0.261253 13.457 0.168708 13.5986 0.103382 13.751Z" fill="black" fill-opacity="0.3"/>
<path d="M7.9534 13.8435C7.89896 13.9687 7.87174 14.1048 7.87174 14.2518C7.87174 14.8289 8.33991 15.297 8.91695 15.297C9.49399 15.297 9.96215 14.8289 9.96215 14.2518C9.96215 14.1048 9.93494 13.9687 9.8805 13.8435C9.82606 13.7183 9.74985 13.604 9.6573 13.5115C9.46677 13.3209 9.20547 13.2066 8.91695 13.2066C8.62843 13.2066 8.36712 13.3264 8.17659 13.5115C8.08405 13.604 8.00783 13.7183 7.9534 13.8435Z" fill="black" fill-opacity="0.3"/>
<path d="M1.97603 12.3411C1.97603 13.0161 2.52041 13.5605 3.19544 13.5605C3.87047 13.5605 4.41485 13.0161 4.41485 12.3411C4.41485 11.666 3.87047 11.1217 3.19544 11.1217C2.52041 11.1217 1.97603 11.666 1.97603 12.3411Z" fill="black" fill-opacity="0.3"/>
<path d="M4.28428 13.4298C4.18085 13.5333 4.09375 13.6585 4.03387 13.8C3.97398 13.9361 3.94132 14.0885 3.94132 14.2518C3.94132 14.6492 4.14274 15.0031 4.45304 15.2099C4.63813 15.3351 4.86132 15.4059 5.10085 15.4059C5.18251 15.4059 5.25872 15.4005 5.33493 15.3841C5.86298 15.2753 6.26038 14.8071 6.26038 14.2518C6.26038 14.094 6.22771 13.9415 6.16783 13.8C6.10795 13.6639 6.02629 13.5387 5.91742 13.4298C5.75955 13.2719 5.55813 13.1576 5.32949 13.1141C5.25328 13.0977 5.17706 13.0923 5.09541 13.0923C4.85588 13.0923 4.63268 13.1631 4.44759 13.2883C4.39316 13.3318 4.33327 13.3754 4.28428 13.4298Z" fill="black" fill-opacity="0.3"/>
<path d="M11.9491 21.3505C11.8837 21.4485 11.8348 21.5628 11.8075 21.688C11.7966 21.7479 11.7858 21.8132 11.7858 21.8786C11.7858 22.0745 11.8456 22.2542 11.9491 22.4066C12.1178 22.657 12.4064 22.8203 12.733 22.8203C12.7983 22.8203 12.8636 22.8149 12.9235 22.7986C13.1086 22.7605 13.2719 22.6679 13.4026 22.5427C13.4461 22.4992 13.4842 22.4556 13.5169 22.4012C13.5822 22.3032 13.6312 22.1889 13.6584 22.0637C13.6693 22.0038 13.6802 21.9384 13.6802 21.8731C13.6802 21.8078 13.6748 21.7425 13.6584 21.6826C13.6312 21.5574 13.5822 21.4431 13.5169 21.3451C13.4842 21.2961 13.4461 21.2471 13.4026 21.2035C13.2719 21.0729 13.1086 20.9858 12.9235 20.9477C12.8636 20.9368 12.7983 20.9259 12.733 20.9259C12.4064 20.9368 12.1178 21.1001 11.9491 21.3505Z" fill="black" fill-opacity="0.3"/>
<path d="M7.89351 21.6663C7.87718 21.7316 7.87174 21.8023 7.87174 21.8786C7.87174 22.4556 8.33991 22.9238 8.91695 22.9238C9.49399 22.9238 9.96215 22.4556 9.96215 21.8786C9.96215 21.8078 9.95671 21.737 9.94038 21.6663C9.84239 21.1872 9.42322 20.8334 8.91695 20.8334C8.41067 20.8334 7.9915 21.1926 7.89351 21.6663Z" fill="black" fill-opacity="0.3"/>
<path d="M15.7108 21.7098C15.6999 21.7643 15.6944 21.8242 15.6944 21.884C15.6944 22.3522 16.0755 22.7333 16.5437 22.7333C17.0118 22.7333 17.3983 22.3522 17.3983 21.884C17.3983 21.8242 17.3929 21.7697 17.382 21.7098C17.3004 21.3233 16.9574 21.0294 16.5491 21.0294C16.1354 21.0294 15.7924 21.3179 15.7108 21.7098Z" fill="black" fill-opacity="0.3"/>
<path d="M9.83143 23.7839C9.83143 24.3337 10.2778 24.7801 10.8276 24.7801C11.3775 24.7801 11.8239 24.3337 11.8239 23.7839C11.8239 23.2341 11.3775 22.7931 10.8276 22.7931C10.2778 22.7931 9.83143 23.2395 9.83143 23.7839Z" fill="black" fill-opacity="0.3"/>
<path d="M11.9491 17.5344C11.8456 17.6869 11.7858 17.8665 11.7858 18.0625C11.7858 18.2585 11.8456 18.4381 11.9491 18.5905C12.1178 18.841 12.4064 19.0043 12.733 19.0043C12.7983 19.0043 12.8636 18.9988 12.9235 18.9825C13.1086 18.9444 13.2719 18.8518 13.4026 18.7266C13.4461 18.6831 13.4842 18.6395 13.5169 18.5851C13.5822 18.4871 13.6312 18.3728 13.6584 18.2476C13.6693 18.1877 13.6802 18.1224 13.6802 18.0571C13.6802 17.9917 13.6748 17.9264 13.6584 17.8665C13.6312 17.7413 13.5822 17.627 13.5169 17.529C13.4842 17.48 13.4461 17.431 13.4026 17.3875C13.2719 17.2568 13.1086 17.1697 12.9235 17.1316C12.8636 17.1207 12.7983 17.1098 12.733 17.1098C12.4064 17.1207 12.1178 17.284 11.9491 17.5344Z" fill="black" fill-opacity="0.3"/>
<path d="M5.90652 19.9733C5.90652 20.583 6.40191 21.0729 7.00617 21.0729C7.61587 21.0729 8.10581 20.5775 8.10581 19.9733C8.10581 19.3636 7.61043 18.8736 7.00617 18.8736C6.40191 18.8682 5.90652 19.3636 5.90652 19.9733Z" fill="black" fill-opacity="0.3"/>
<path d="M9.83143 19.9732C9.83143 20.5231 10.2778 20.9695 10.8276 20.9695C11.3775 20.9695 11.8239 20.5231 11.8239 19.9732C11.8239 19.4234 11.3775 18.977 10.8276 18.977C10.2778 18.977 9.83143 19.4234 9.83143 19.9732Z" fill="black" fill-opacity="0.3"/>
<path d="M13.7401 19.9733C13.7401 20.4687 14.1429 20.8715 14.6383 20.8715C15.1337 20.8715 15.5365 20.4687 15.5365 19.9733C15.5365 19.4779 15.1337 19.075 14.6383 19.075C14.1429 19.075 13.7401 19.4779 13.7401 19.9733Z" fill="black" fill-opacity="0.3"/>
<path d="M9.83143 4.71433C9.83143 5.26415 10.2778 5.71054 10.8276 5.71054C11.3775 5.71054 11.8239 5.26415 11.8239 4.71433C11.8239 4.16451 11.3775 3.71811 10.8276 3.71811C10.2778 3.71811 9.83143 4.16451 9.83143 4.71433Z" fill="black" fill-opacity="0.3"/>
<path d="M13.7401 4.71429C13.7401 5.20968 14.1429 5.61252 14.6383 5.61252C15.1337 5.61252 15.5365 5.20968 15.5365 4.71429C15.5365 4.21891 15.1337 3.81607 14.6383 3.81607C14.1429 3.81607 13.7401 4.21891 13.7401 4.71429Z" fill="black" fill-opacity="0.3"/>
<path d="M17.6433 4.71433C17.6433 5.16072 18.0081 5.52545 18.4545 5.52545C18.9009 5.52545 19.2656 5.16072 19.2656 4.71433C19.2656 4.26794 18.9009 3.9032 18.4545 3.9032C18.0081 3.9032 17.6433 4.26794 17.6433 4.71433Z" fill="black" fill-opacity="0.3"/>
<path d="M21.5411 0.898218C21.5411 1.30106 21.8677 1.62769 22.2705 1.62769C22.6734 1.62769 23 1.30106 23 0.898218C23 0.495377 22.6734 0.16875 22.2705 0.16875C21.8677 0.16875 21.5411 0.495377 21.5411 0.898218Z" fill="black" fill-opacity="0.3"/>
<path d="M17.6433 0.898225C17.6433 1.34462 18.0081 1.70935 18.4545 1.70935C18.9009 1.70935 19.2656 1.34462 19.2656 0.898225C19.2656 0.451834 18.9009 0.0871018 18.4545 0.0871017C18.0081 0.0871017 17.6433 0.451834 17.6433 0.898225Z" fill="black" fill-opacity="0.3"/>
<path d="M13.7401 0.898222C13.7401 1.39361 14.1429 1.79645 14.6383 1.79645C15.1337 1.79645 15.5365 1.39361 15.5365 0.898222C15.5365 0.402837 15.1337 -2.30019e-06 14.6383 -2.3435e-06C14.1429 -2.38681e-06 13.7401 0.402837 13.7401 0.898222Z" fill="black" fill-opacity="0.3"/>
<path d="M11.9491 2.27551C11.8456 2.42794 11.7858 2.60758 11.7858 2.80356C11.7858 2.99953 11.8456 3.17918 11.9491 3.3316C12.1178 3.58202 12.4064 3.74533 12.733 3.74533C12.7983 3.74533 12.8636 3.73989 12.9235 3.72356C13.1086 3.68545 13.2719 3.59291 13.4026 3.4677C13.4461 3.42415 13.4842 3.3806 13.5169 3.32616C13.5822 3.22817 13.6312 3.11385 13.6584 2.98864C13.6693 2.92876 13.6802 2.86344 13.6802 2.79811C13.6802 2.73279 13.6748 2.66746 13.6584 2.60758C13.6312 2.48237 13.5822 2.36805 13.5169 2.27006C13.4842 2.22107 13.4461 2.17208 13.4026 2.12853C13.2719 1.99788 13.1086 1.91077 12.9235 1.87267C12.8636 1.86178 12.7983 1.85089 12.733 1.85089C12.4064 1.86178 12.1178 2.02509 11.9491 2.27551Z" fill="black" fill-opacity="0.3"/>
<path d="M19.7229 2.37347C19.6412 2.49868 19.5922 2.64566 19.5922 2.80353C19.5922 2.9614 19.6412 3.10838 19.7229 3.23359C19.859 3.44046 20.0931 3.57111 20.3598 3.57111C20.4142 3.57111 20.4632 3.56566 20.5122 3.55478C20.6647 3.52211 20.7953 3.45134 20.8987 3.34791C20.9314 3.31525 20.9641 3.27714 20.9913 3.23359C21.0457 3.15193 21.0838 3.05939 21.1056 2.9614C21.1165 2.91241 21.1219 2.85797 21.1219 2.80898C21.1219 2.75454 21.1165 2.70554 21.1056 2.65655C21.0838 2.55856 21.0457 2.46602 20.9913 2.37892C20.9641 2.33537 20.9314 2.29726 20.8987 2.2646C20.7953 2.16117 20.6592 2.08495 20.5122 2.05229C20.4632 2.0414 20.4088 2.03596 20.3598 2.03596C20.0985 2.03596 19.8644 2.17205 19.7229 2.37347Z" fill="black" fill-opacity="0.3"/>
<path d="M15.6944 2.80354C15.6944 3.2717 16.0755 3.65277 16.5437 3.65277C17.0118 3.65277 17.3983 3.27171 17.3983 2.80354C17.3983 2.33537 17.0173 1.94886 16.5437 1.94886C16.0701 1.94886 15.6944 2.33537 15.6944 2.80354Z" fill="black" fill-opacity="0.3"/>
<path d="M11.9491 9.90768C11.8456 10.0601 11.7858 10.2398 11.7858 10.4357C11.7858 10.6317 11.8456 10.8113 11.9491 10.9638C12.1178 11.2142 12.4064 11.3775 12.733 11.3775C12.7983 11.3775 12.8636 11.3721 12.9235 11.3557C13.1086 11.3176 13.2719 11.2251 13.4026 11.0999C13.4461 11.0563 13.4842 11.0128 13.5169 10.9583C13.5822 10.8603 13.6312 10.746 13.6584 10.6208C13.6693 10.5609 13.6802 10.4956 13.6802 10.4303C13.6802 10.365 13.6748 10.2996 13.6584 10.2398C13.6312 10.1145 13.5822 10.0002 13.5169 9.90224C13.4842 9.85324 13.4461 9.80425 13.4026 9.7607C13.2719 9.63005 13.1086 9.54295 12.9235 9.50484C12.8636 9.49395 12.7983 9.48306 12.733 9.48306C12.4064 9.48851 12.1178 9.65726 11.9491 9.90768Z" fill="black" fill-opacity="0.3"/>
<path d="M3.94132 10.4357C3.94132 10.8331 4.14274 11.187 4.45304 11.3938C4.63813 11.519 4.86132 11.5898 5.10085 11.5898C5.18251 11.5898 5.25872 11.5844 5.33493 11.568C5.86298 11.4592 6.26038 10.991 6.26038 10.4357C6.26038 9.87502 5.86298 9.40685 5.33493 9.29798C5.25872 9.28165 5.18251 9.2762 5.10085 9.2762C4.86132 9.2762 4.63813 9.34697 4.45304 9.47218C4.14274 9.68449 3.94132 10.0329 3.94132 10.4357Z" fill="black" fill-opacity="0.3"/>
<path d="M7.87174 10.4357C7.87174 11.0128 8.33991 11.4809 8.91695 11.4809C9.49399 11.4809 9.96215 11.0128 9.96215 10.4357C9.96215 9.85868 9.49399 9.39051 8.91695 9.39051C8.33991 9.39051 7.87174 9.85868 7.87174 10.4357Z" fill="black" fill-opacity="0.3"/>
<path d="M7.95339 6.21137C7.89896 6.33657 7.87174 6.47267 7.87174 6.61965C7.87174 7.19669 8.3399 7.66486 8.91694 7.66486C9.49398 7.66486 9.96215 7.19669 9.96215 6.61965C9.96215 6.47267 9.93493 6.33657 9.88049 6.21137C9.82606 6.08616 9.74984 5.97184 9.6573 5.87929C9.46677 5.68876 9.20546 5.57444 8.91694 5.57444C8.62842 5.57444 8.36712 5.6942 8.17659 5.87929C8.08404 5.97728 8.00783 6.08616 7.95339 6.21137Z" fill="black" fill-opacity="0.3"/>
<path d="M11.9491 6.09159C11.9164 6.14058 11.8837 6.19502 11.862 6.24946C11.813 6.36378 11.7858 6.48899 11.7858 6.61419C11.7858 6.81017 11.8456 6.98982 11.9491 7.14224C12.1178 7.39266 12.4063 7.55597 12.733 7.55597C12.7983 7.55597 12.8636 7.55053 12.9235 7.5342C13.1086 7.49609 13.2719 7.40354 13.4026 7.27834C13.4461 7.23479 13.4842 7.19124 13.5169 7.1368C13.5822 7.03881 13.6312 6.92449 13.6584 6.79928C13.6693 6.7394 13.6802 6.67408 13.6802 6.60875C13.6802 6.54343 13.6748 6.4781 13.6584 6.41822C13.6475 6.35834 13.6258 6.29845 13.604 6.23857C13.5822 6.18414 13.5495 6.1297 13.5169 6.0807C13.4842 6.03171 13.4461 5.98272 13.4026 5.93917C13.2719 5.80851 13.1086 5.72141 12.9235 5.68331C12.8636 5.67242 12.7983 5.66153 12.733 5.66153C12.4717 5.66153 12.2376 5.76496 12.0634 5.93917C12.0198 5.9936 11.9817 6.0426 11.9491 6.09159Z" fill="black" fill-opacity="0.3"/>
<path d="M15.7598 6.28757C15.7162 6.391 15.6944 6.49988 15.6944 6.61964C15.6944 7.08781 16.0755 7.46887 16.5437 7.46887C17.0118 7.46887 17.3983 7.08781 17.3983 6.61964C17.3983 6.49988 17.3766 6.391 17.333 6.28757C17.2895 6.18414 17.2296 6.09159 17.1479 6.01538C16.9955 5.86296 16.7832 5.76497 16.5437 5.76497C16.3096 5.76497 16.0973 5.86296 15.9394 6.01538C15.8686 6.09704 15.8033 6.18414 15.7598 6.28757Z" fill="black" fill-opacity="0.3"/>
<path d="M9.83143 8.52497C9.83143 9.07479 10.2778 9.52118 10.8276 9.52118C11.3775 9.52118 11.8239 9.07479 11.8239 8.52497C11.8239 7.97514 11.3775 7.5342 10.8276 7.5342C10.2778 7.5342 9.83143 7.98059 9.83143 8.52497Z" fill="black" fill-opacity="0.3"/>
<path d="M13.7401 23.7839C13.7401 24.2793 14.1429 24.6821 14.6383 24.6821C15.1337 24.6821 15.5365 24.2793 15.5365 23.7839C15.5365 23.2885 15.1337 22.8857 14.6383 22.8857C14.1429 22.8911 13.7401 23.294 13.7401 23.7839Z" fill="black" fill-opacity="0.3"/>
<path d="M13.7401 8.52496C13.7401 9.02035 14.1429 9.42319 14.6383 9.42319C15.1337 9.42319 15.5365 9.02035 15.5365 8.52496C15.5365 8.02958 15.1337 7.62674 14.6383 7.62674C14.1429 7.63218 13.7401 8.02958 13.7401 8.52496Z" fill="black" fill-opacity="0.3"/>
<path d="M5.90652 8.52496C5.90652 9.13466 6.40191 9.6246 7.00617 9.6246C7.61587 9.6246 8.10581 9.12922 8.10581 8.52496C8.10581 7.91525 7.61043 7.42531 7.00617 7.42531C6.40191 7.42531 5.90652 7.9207 5.90652 8.52496Z" fill="black" fill-opacity="0.3"/>
<path d="M17.6433 23.7894C17.6433 24.2358 18.0081 24.6005 18.4545 24.6005C18.9009 24.6005 19.2656 24.2358 19.2656 23.7894C19.2656 23.343 18.9009 22.9782 18.4545 22.9782C18.0081 22.9782 17.6433 23.3375 17.6433 23.7894Z" fill="black" fill-opacity="0.3"/>
<path d="M21.5411 27.6C21.5411 28.0028 21.8677 28.3295 22.2705 28.3295C22.6734 28.3295 23 28.0028 23 27.6C23 27.1972 22.6734 26.8705 22.2705 26.8705C21.8677 26.8705 21.5411 27.1972 21.5411 27.6Z" fill="black" fill-opacity="0.3"/>
<path d="M13.7401 27.6C13.7401 28.0954 14.1429 28.4982 14.6383 28.4982C15.1337 28.4982 15.5365 28.0954 15.5365 27.6C15.5365 27.1046 15.1337 26.7018 14.6383 26.7018C14.1429 26.7018 13.7401 27.1046 13.7401 27.6Z" fill="black" fill-opacity="0.3"/>
<path d="M17.6433 27.6C17.6433 28.0464 18.0081 28.4111 18.4545 28.4111C18.9009 28.4111 19.2656 28.0464 19.2656 27.6C19.2656 27.1536 18.9009 26.7889 18.4545 26.7889C18.0081 26.7943 17.6433 27.1536 17.6433 27.6Z" fill="black" fill-opacity="0.3"/>
<path d="M11.9491 25.1666C11.8456 25.319 11.7858 25.4987 11.7858 25.6947C11.7858 25.8906 11.8456 26.0703 11.9491 26.2227C12.1178 26.4731 12.4064 26.6364 12.733 26.6364C12.7983 26.6364 12.8636 26.631 12.9235 26.6147C13.1086 26.5766 13.2719 26.484 13.4026 26.3588C13.4407 26.3207 13.4788 26.2717 13.5169 26.2227C13.5822 26.1247 13.6312 26.0104 13.6584 25.8852C13.6693 25.8253 13.6802 25.76 13.6802 25.6947C13.6802 25.6293 13.6748 25.564 13.6584 25.5041C13.6312 25.3789 13.5822 25.2646 13.5169 25.1666C13.4842 25.1176 13.4461 25.0686 13.4026 25.0251C13.2719 24.8944 13.1086 24.8073 12.9235 24.7692C12.8636 24.7583 12.7983 24.7474 12.733 24.7474C12.4064 24.7474 12.1178 24.9162 11.9491 25.1666Z" fill="black" fill-opacity="0.3"/>
<path d="M15.6944 25.6947C15.6944 26.1628 16.0755 26.5439 16.5437 26.5439C17.0118 26.5439 17.3983 26.1628 17.3983 25.6947C17.3983 25.2265 17.0173 24.84 16.5437 24.84C16.0701 24.84 15.6944 25.2265 15.6944 25.6947Z" fill="black" fill-opacity="0.3"/>
<path d="M19.7228 25.2646C19.6411 25.3898 19.5922 25.5368 19.5922 25.6947C19.5922 25.8525 19.6411 25.9995 19.7228 26.1247C19.8643 26.3262 20.0984 26.4622 20.3597 26.4622C20.4142 26.4622 20.4632 26.4568 20.5122 26.4459C20.6646 26.4187 20.8007 26.3425 20.9041 26.2391C20.9422 26.2009 20.9694 26.1628 21.0021 26.1247C21.0565 26.0431 21.0946 25.9505 21.1164 25.8525C21.1273 25.7981 21.1327 25.7491 21.1327 25.6947C21.1327 25.6402 21.1273 25.5912 21.1164 25.5422C21.0946 25.4388 21.0565 25.3463 21.0021 25.2646C20.9749 25.2211 20.9422 25.183 20.9096 25.1503C20.8061 25.0469 20.67 24.9707 20.523 24.938C20.474 24.9271 20.4196 24.9217 20.3706 24.9217C20.0984 24.9271 19.8643 25.0578 19.7228 25.2646Z" fill="black" fill-opacity="0.3"/>
</svg>
