<?xml version="1.0" encoding="utf-8"?>
<!-- Generator: Adobe Illustrator 25.2.0, SVG Export Plug-In . SVG Version: 6.00 Build 0)  -->
<svg version="1.1" id="Layer_1" xmlns="http://www.w3.org/2000/svg" xmlns:xlink="http://www.w3.org/1999/xlink" x="0px" y="0px"
	 viewBox="0 0 26 25" style="enable-background:new 0 0 26 25;" xml:space="preserve">
<style type="text/css">
	.st0{fill:#FFFFFF;}
	.st1{fill:#231F20;}
</style>
<path class="st0" d="M25.4,11.7c0.5,6.2-4.5,11.7-11.3,12.3C7.3,24.6,1.4,20,0.9,13.8s4.5-12.4,11.3-13S24.9,5.5,25.4,11.7z"/>
<path class="st1" d="M24.8,7.6c0-0.1,0-0.1-0.1-0.2c-0.1-0.3-0.2-0.5-0.3-0.8c-0.1-0.2-0.5-0.1-0.5,0.1s0,0.3,0,0.5l0,0
	c-0.2-0.1-0.4,0.1-0.3,0.3c0.1,0.2,0.2,0.3,0.3,0.5c0,0,0,0,0,0.1c0.2,0.3,0.3,0.7,0.4,1.1c0.2,0.6,0.4,1.3,0.5,1.9
	c-0.1,0-0.2,0-0.2,0.1c-0.1,0.4-0.1,0.8-0.2,1.2c-0.2-1-0.2-2.2-0.5-3.1c0-0.1-0.1-0.2-0.1-0.3c0-0.3-0.3-0.7-0.5-0.9
	c-0.1,0-0.1,0-0.1,0.1c0,0.2,0.1,0.3,0.1,0.5l0,0c0.2,0.6,0.4,1.1,0.6,1.7C24,10.7,24,11,24,11.3c-0.2-0.6-0.4-1.3-0.6-1.9
	c0-0.2-0.1-0.4-0.2-0.6c-0.1-0.2-0.2-0.5-0.4-0.7c-0.1-0.2-0.3,0-0.3,0.2s0.2,0.5,0.2,0.7c0.1,0.2,0.1,0.4,0.2,0.5
	c0.5,1.3,0.8,2.6,0.7,3.9c-0.1,2.2-1,4.3-2.5,6c-1.8,2.1-4.4,3.5-7.1,3.8c-0.8,0.1-1.7,0.1-2.5,0c-0.1,0-0.3,0-0.4,0
	c-3.9-0.6-7.4-3.3-8.6-7.1c-0.9-3.7,0.2-7.7,3-10.5c1.9-1.9,4.3-3.4,6.9-4c1.8,0,3.6,0.7,5.3,1.5c0.1,0.1,0.2,0.1,0.2,0.2
	c0.2,0.1,0.5,0.3,0.8,0.4c0.2,0,0.4-0.2,0.3-0.3c-0.2-0.2-0.4-0.4-0.7-0.5c-0.3-0.2-0.5-0.3-0.8-0.3c-0.7-0.3-1.4-0.6-2.2-0.8
	c1.1,0.2,2.2,0.6,3.2,1C18.7,2.9,18.9,3,19.2,3c0.1,0,0.1-0.1,0.1-0.1c0-0.1-0.2-0.3-0.3-0.4c0-0.1-0.1-0.1-0.2-0.1
	s-0.1-0.1-0.2-0.1c-0.3-0.2-0.5-0.4-0.9-0.5h-0.1c-0.4-0.2-0.8-0.3-1.3-0.5c0.3,0,0.6,0.1,0.9,0.1c0.1,0,0.3,0.1,0.4,0.2
	c0.3,0.2,0.7,0.3,1,0.5h0.1c0.3,0.2,0.7,0.4,1,0.6c0.2,0.1,0.3-0.1,0.2-0.3c-0.1-0.3-0.4-0.5-0.7-0.6l0,0c-0.3-0.2-0.6-0.3-1-0.5
	C15.4-0.4,11.8-0.3,8.8,1C8.2,1.1,7.7,1.3,7.1,1.5C4.5,2.4,2.1,4,0.9,6.6c-1.1,2.6-1.1,6.2-0.5,9c0.1,0.5,0.2,0.9,0.4,1.3
	c0.1,0.7,0.3,1.4,0.5,2.1c0.8,2.2,2.3,4.4,4.5,5.4c2.5,1.1,5.5,0.7,8.1,0c3.1,0.2,6.1-0.1,8.3-2.8c0.6-0.7,1-1.4,1.4-2.3
	c0,0,0,0,0.1-0.1c1.1-1.1,1.9-2.4,2.1-4c0-0.6,0-1.2,0-1.8C26,11.4,25.8,9.5,24.8,7.6z M0.9,10.5c0.2-3.1,1.5-5.4,4-7
	C4.8,3.6,4.6,3.8,4.5,3.9c-1.8,2-3,4.5-3.6,7.2C0.9,10.9,0.9,10.7,0.9,10.5z M1,14.3C1,11.7,1.7,9,3,6.8c1.2-2,2.9-3.6,4.8-4.7
	C8.2,2,8.7,1.8,9.1,1.7c0,0-0.1,0-0.1,0.1C8.9,1.8,8.9,1.9,8.9,2c-1,0.6-2,1.2-2.9,1.9c-3.4,2.7-5.3,6.8-4.5,11.2
	c0.3,1.5,0.9,2.9,1.7,4.2C1.9,17.8,1.3,16.1,1,14.3z M9.8,24.4c-3,0.1-5.6-1.1-7.1-3.7c-0.4-0.7-0.7-1.4-1-2.1
	c1.4,2.1,3.6,3.7,6.1,4.6c0.6,0.3,1.2,0.5,1.8,0.7c0.5,0.2,1.1,0.3,1.6,0.3C10.8,24.3,10.3,24.3,9.8,24.4z M22.1,20.7
	c-1.6,2.3-4,3.1-6.5,3.3c1.5-0.4,3-1.1,4.3-2c0.8-0.5,1.6-1,2.4-1.6C22.2,20.5,22.2,20.6,22.1,20.7z M24.2,17.6
	c0.1-0.2,0.1-0.4,0.2-0.5c0.2-0.5,0.5-0.9,0.7-1.4C24.9,16.3,24.6,17,24.2,17.6z M24.9,14.2C25,13.4,25,12.7,25,12
	c0.1,0.4,0.1,0.7,0.1,1.1C25.1,13.4,25,13.8,24.9,14.2z M25,10c-0.1-0.6-0.3-1.2-0.6-1.8c0,0,0,0.1,0.1,0.1c0.4,0.8,0.6,1.7,0.7,2.6
	C25.2,10.6,25.1,10.3,25,10z"/>
</svg>
