<svg width="21" height="19" viewBox="0 0 21 19" fill="#D35E43" xmlns="http://www.w3.org/2000/svg">
<path d="M20.7238 1.83394C20.7329 1.57869 20.6782 1.33256 20.5414 1.10009C18.9273 -1.62107 12.9953 5.84048 10.1592 9.78321C9.5665 10.5763 8.99655 11.3831 8.50411 12.2218C8.41748 12.3722 8.33997 12.5317 8.28069 12.6913C7.53748 11.8024 6.70763 10.9911 5.77292 10.2892C4.88836 9.62823 2.99612 8.09672 1.76959 8.82601C1.70576 8.86703 1.65104 8.90806 1.60089 8.94908C0.0415083 9.45958 1.18141 11.3329 1.99301 12.085C2.5584 12.6092 3.19675 13.0513 3.81685 13.5117C4.87468 14.4233 5.9325 15.303 6.61188 16.6294C6.86266 17.1217 7.42805 18.7672 8.20774 18.3569C8.27613 18.3797 8.34453 18.3979 8.4266 18.4025C9.27924 18.4526 9.63489 17.1809 9.9267 16.6066C11.29 13.9402 13.0774 11.6383 14.6778 9.13596C15.9864 7.70017 17.3862 6.35098 18.8589 5.07928C19.6569 4.40013 21.1935 2.98257 20.7238 1.83394ZM2.64504 11.8252C2.49001 11.6885 2.33498 11.5563 2.19364 11.4059C2.06141 11.2509 1.93374 11.0959 1.80151 10.941C1.53249 10.6811 1.55073 10.476 1.85167 10.3211C1.97934 10.4669 2.12068 10.6082 2.25747 10.7404C2.51737 11.3785 3.04172 11.8981 3.58887 12.3904C3.2925 12.1853 2.99156 11.9939 2.68151 11.8343C2.66783 11.8298 2.65871 11.8298 2.64504 11.8252ZM7.61499 16.4015C7.21375 15.8956 6.78059 15.417 6.33831 14.9521C6.21976 14.7697 6.09209 14.5965 5.96442 14.4279C6.51157 14.9794 7.05416 15.5355 7.60131 16.0824C7.60131 16.1599 7.63323 16.242 7.68794 16.3058C7.66059 16.3377 7.63779 16.3696 7.61499 16.4015ZM3.34265 10.4532C3.65727 10.6082 3.97188 10.7951 4.27281 11.0002C5.16193 11.6885 5.99634 12.436 6.78059 13.2428C7.34598 13.9402 7.83841 14.7059 7.87945 15.2802C6.5982 13.457 5.07986 11.8435 3.34265 10.4532ZM6.4523 11.9346C5.68172 11.1005 4.80628 10.353 3.90348 9.6647C3.84421 9.61911 3.78493 9.57353 3.72566 9.52795C3.96276 9.65558 4.19074 9.79688 4.41416 9.93818C4.99779 10.3119 5.5495 10.7267 6.07385 11.178C6.85354 11.8526 7.54204 12.6046 8.16214 13.4205C8.1667 13.5391 8.18494 13.653 8.21686 13.7624C7.67427 13.1106 7.09064 12.4998 6.4523 11.9346ZM8.1439 17.1992C8.08007 17.108 8.01624 17.0169 7.9524 16.9303C7.99344 16.871 8.03447 16.8117 8.08007 16.757L8.26701 16.9713C8.22598 17.0442 8.1895 17.1217 8.1439 17.1992ZM18.7997 1.30065C18.4668 1.49665 18.134 1.6972 17.8102 1.90687C18.1522 1.59692 18.5215 1.31432 18.7997 1.30065ZM13.3236 7.20334C14.0668 6.36922 14.8693 5.58523 15.7174 4.85594C15.3389 5.25705 14.9742 5.67183 14.6231 6.10029C13.9619 6.79767 13.319 7.51329 12.7081 8.25625C11.6913 9.49605 10.7429 10.7951 9.88111 12.1488C9.7808 12.3084 9.66225 12.4816 9.5437 12.6593C10.5058 10.6401 11.9785 8.71662 13.3236 7.20334ZM9.02847 15.6859C8.96919 15.6859 8.90992 15.6996 8.86432 15.7315C8.99655 15.5264 9.12422 15.3167 9.25644 15.1116C9.90847 14.2045 10.5696 13.3066 11.2444 12.4132C10.4967 13.498 9.76256 14.592 9.02847 15.6859ZM19.6432 2.62249C18.672 3.41559 17.751 4.25427 16.8618 5.12487C14.883 7.02558 13.0546 9.07215 11.3858 11.2463C12.1381 10.1068 12.9087 8.97643 13.734 7.89617C15.5624 5.77667 17.6187 3.88051 19.8438 2.18491C19.8621 2.19859 19.8803 2.21682 19.8985 2.23049C19.8256 2.37179 19.7344 2.49486 19.6432 2.62249Z" fill="#D35E43"/>
</svg>
