<?xml version="1.0" encoding="utf-8"?>
<!-- Generator: Adobe Illustrator 25.2.1, SVG Export Plug-In . SVG Version: 6.00 Build 0)  -->
<svg version="1.1" id="레이어_1" xmlns="http://www.w3.org/2000/svg" xmlns:xlink="http://www.w3.org/1999/xlink" x="0px"
	 y="0px" viewBox="0 0 289 25" style="enable-background:new 0 0 289 25;" xml:space="preserve">
<path class="st0" d="M53.9,25l-0.2-0.1c-0.9-0.3-2.4-0.5-3.7-0.7c-1.8-0.2-4-0.3-6.4-0.4c-4.9-0.1-11.2-0.1-17.1,0c-1.8,0-3.6,0.1-5.4,0.1
		c-1.8,0-3.6,0-5.3,0.1c-1.2,0-2.3,0-3.3,0.1c-1,0-1.9,0-2.7,0H0.3v-0.8c0-0.1-0.1-0.2-0.1-0.4c-0.1-0.6-0.1-1.2-0.1-2
		c0-1.4,0.3-3.5,0.9-6.2C1.7,12,2.3,9.9,2.9,8.3c0.2-0.7,0.5-1.3,0.8-1.8c0.1-0.2,0.2-0.4,0.3-0.6c0.2-0.5,0.4-0.8,0.6-1
		c0.1-0.1,0.1-0.2,0.1-0.2l0.2-0.3c0.5-0.5,1-0.6,1.5-0.8c0.6-0.1,1.2-0.1,2.1,0l0.4,0c0.5,0.1,1.7,0.2,3,0.2C13.3,4,15.4,4,17.5,4
		C22,4.1,27.8,4,33.4,3.9c10-0.1,20.6-0.3,24.4-0.4l0.8,0l0.2,0.1c0.2,0.1,0.4,0,0.4,0l0.2-0.1c0.2,0,0.3-0.1,0.4-0.2
		c0.1,0,0.2-0.1,0.3-0.1C60.3,3,60.7,2.9,61,2.9l227.2-3.7l0.1,0l0,0l0.5,0l0,1c0,0,0,0,0,0c0,0,0,0,0,0v0l0.4,0.9L289,1.2
		c0,0.2,0,0.5,0,0.7c0,0.6,0,1.4-0.1,2.2c-0.1,1.6-0.5,3.4-0.8,5.3l-0.3,1.2c-0.4,1.7-0.9,3.4-1.4,4.9c-0.5,1.5-1.3,3-1.9,3.9
		l-0.1,0.1c-0.2,0.2-0.7,0.7-1.5,0.9c-0.6,0.2-1.4,0.4-2.5,0.5c-2.1,0.2-4.7,0.3-7.3,0.2l-0.9,0c-5-0.1-11-0.2-16.6,0.6l0,0.1
		l-2,0.2l0-0.1c-19.3,0.4-29.3,0.5-45.7,0.6c-3,0.1-6.2,0.1-9.7,0.1l-10.6,1.1l-0.5,0.7l-0.8-0.6c0,0-0.1,0-0.1,0l-1,0.1l-0.1-0.5
		c-0.4,0-1.2,0.1-2.2,0.3c-1.9,0.4-3.9,0.7-5.8,0.2l-0.1,0.1l-0.7-0.4c-0.2-0.1-0.4-0.2-0.6-0.3c0,0-0.1,0-0.1,0l-0.2,0
		c-0.2,0-0.4-0.1-0.6-0.1c-0.3,0-0.5-0.1-0.8-0.1c-0.7-0.1-2.3-0.2-3.8-0.2c-1.5,0-2.9,0-4.1,0.1c-1.2,0.1-2.2,0.3-2.8,0.5l-0.4,0
		h-8.4c-1,0-2.2,0-3.3,0c-2.8-0.1-5.9-0.1-9.1-0.1c-1.8,0-3.6-0.1-5.5-0.1c-6.6-0.1-13.3-0.1-18.6,0c-2.7,0-5,0.1-6.8,0.3
		c-0.9,0.1-1.7,0.2-2.4,0.3c-0.5,0.1-0.9,0.2-1.3,0.3l-0.2,0.1l-0.2,0c-2.1-0.4-5.6-0.6-10.8-0.7c-4.4-0.1-9.8,0-16,0.2
		c-6.3,0.2-13.4,0.5-21.4,0.9c-0.9,0-1.8,0.1-2.6,0.1c-1,0-1.8,0.1-2.5,0.1L53.9,25z M35.4,21.8c2.9,0,5.8,0,8.2,0.1
		c2.5,0.1,4.7,0.2,6.6,0.4c1.7,0.2,3,0.4,3.9,0.7c0.7,0,1.5-0.1,2.4-0.1c0.8,0,1.6,0,2.6-0.1c7.9-0.4,15.2-0.7,21.4-0.9
		c6.3-0.2,11.7-0.3,16.1-0.2c5.1,0.1,8.6,0.3,10.8,0.7c0.4-0.1,0.7-0.2,1.3-0.3c0.7-0.1,1.5-0.2,2.5-0.3c1.9-0.2,4.3-0.3,7-0.3
		c5.3-0.1,12-0.1,18.6,0c0,0,0,0,0,0c1.8,0,3.7,0,5.5,0.1c3.2,0,6.3,0,9.1,0.1c1.2,0,2.3,0,3.3,0h8.4c0.8-0.2,2-0.4,3.1-0.5
		c1.3-0.1,2.8-0.1,4.3-0.1c1.6,0,3.2,0.1,4.1,0.2c0.3,0.1,0.6,0.1,0.8,0.1c0.3,0,0.6,0.1,0.9,0.1l0.2,0c0.4,0.1,0.9,0.2,1.4,0.5l0,0
		c1.4,0.4,3.2,0.2,5-0.2c1.6-0.3,3-0.5,4,0.1l11.5-1.2c3.4,0,6.7,0,9.7-0.1c16.4-0.1,26.3-0.2,45.5-0.6l0,0h1c6-1,12.8-0.9,17.8-0.8
		h0.9c2.5,0.1,5,0,7.1-0.2c0.9-0.1,1.5-0.3,2.1-0.5c0.3-0.1,0.5-0.3,0.6-0.4c0.4-0.6,1.1-1.8,1.6-3.4c0.5-1.4,1-3.1,1.4-4.8l0.3-1.1
		c0.4-1.8,0.7-3.5,0.8-5.1c0.1-0.8,0.1-1.5,0.1-2c0-0.1,0-0.3,0-0.4l0.1-0.1c0-0.1-0.1-0.1-0.2-0.2L61.2,4.9L61.1,5L60.9,5
		c-0.1,0-0.2,0.1-0.3,0.1c-0.2,0.1-0.4,0.2-0.7,0.3c-0.4,0.2-1.1,0.2-1.7,0.1h-0.4C54,5.6,43.4,5.8,33.4,5.9C27.8,6,22,6.1,17.5,6
		c-2.2,0-4.2,0-5.7-0.1c-1.3,0-2.6-0.1-3.2-0.2l-0.3,0C7.5,5.6,7,5.5,6.7,5.6C6.5,5.6,6.4,5.7,6.3,5.7c0,0.1-0.1,0.1-0.1,0.2
		C6,6.1,5.9,6.4,5.7,6.7C5.6,6.9,5.5,7.1,5.4,7.3C5.2,7.9,4.9,8.4,4.7,9c-0.6,1.5-1.2,3.5-1.8,6.2c-0.6,2.6-0.9,4.5-0.9,5.8
		c0,0.5,0,0.9,0,1.2h7.6c0.8,0,1.7,0,2.7,0c1.1,0,2.2-0.1,3.3-0.1C17.4,22,19.2,22,21,22c1.7,0,3.5,0,5.3-0.1
		C29.4,21.9,32.4,21.8,35.4,21.8z M61,3.9v1c0,0,0,0,0,0l0,0L61,3.9z M61.3,4.8L61.3,4.8C61.3,4.8,61.3,4.8,61.3,4.8z"/>
</svg>
