<svg width="38" height="38" viewBox="0 0 38 38" fill="none" xmlns="http://www.w3.org/2000/svg">
<path d="M18.9997 3.36992e-05C14.6779 -0.00813047 10.4852 1.46736 7.12157 4.18009C6.91895 4.34337 6.72227 4.5074 6.52559 4.6781C5.86132 5.24366 5.24382 5.86191 4.67826 6.52543C4.56025 6.66274 4.44224 6.80079 4.32423 6.94478C-1.88572 14.4944 -1.34985 25.5257 5.56222 32.4378C12.475 39.3499 23.5056 39.8857 31.0552 33.6758C31.1992 33.5577 31.3372 33.4397 31.4745 33.3217C32.1388 32.7562 32.7563 32.1379 33.3218 31.4744C33.4925 31.2777 33.6625 31.081 33.8198 30.8784C38.3933 25.1798 39.2921 17.3615 36.1296 10.7738C32.9671 4.18603 26.3066 -0.00367729 18.9997 3.36992e-05ZM18.9997 34.0691C13.241 34.0736 7.98475 30.7931 5.45757 25.6185C2.93113 20.4439 3.57684 14.2814 7.12157 9.74286L28.2578 30.8792C25.6141 32.9454 22.3551 34.0684 18.9997 34.0691ZM31.0151 28.0744L9.91891 6.98411C15.9129 2.44261 24.3383 3.01929 29.6569 8.3364C34.9754 13.6535 35.5558 22.0789 31.0151 28.0744Z" fill="#D35E43"/>
</svg>
