<svg width="414" height="160" viewBox="0 0 414 160" fill="none" xmlns="http://www.w3.org/2000/svg">
<g opacity="0.43">
<path opacity="0.43" d="M62.6648 31.5539H94.8223L100.971 43.5294L107.12 31.5539H139.277C147.824 31.5539 154.759 24.6265 154.759 16.0901C154.759 7.55376 147.824 0.626404 139.277 0.626404H62.6648C54.1182 0.626404 47.1825 7.55376 47.1825 16.0901C47.1825 24.6265 54.1059 31.5539 62.6648 31.5539Z" fill="black"/>
<path opacity="0.43" d="M100.983 44.8682L94.4534 32.168H62.6648C53.7861 32.168 46.5676 24.9459 46.5676 16.0779C46.5676 7.20986 53.7861 0 62.6648 0H139.289C148.168 0 155.387 7.20986 155.387 16.0779C155.387 24.9459 148.168 32.1557 139.289 32.1557H107.501L100.983 44.8682ZM62.6648 1.22826C54.4625 1.22826 47.7974 7.8854 47.7974 16.0779C47.7974 24.2703 54.4625 30.9275 62.6648 30.9275H95.2035L100.983 42.1783L106.763 30.9275H139.302C147.504 30.9275 154.169 24.2703 154.169 16.0779C154.169 7.8854 147.492 1.22826 139.289 1.22826H62.6648Z" fill="white"/>
</g>
<g opacity="0.43">
<path opacity="0.43" d="M288.911 138.658H321.068L327.217 150.633L333.366 138.658H365.523C374.07 138.658 381.005 131.73 381.005 123.194C381.005 114.658 374.07 107.73 365.523 107.73H288.886C280.339 107.73 273.404 114.658 273.404 123.194C273.428 131.73 280.364 138.658 288.911 138.658Z" fill="black"/>
<path opacity="0.43" d="M327.229 151.984L320.699 139.284H288.911C280.032 139.284 272.814 132.074 272.814 123.206C272.814 114.338 280.032 107.128 288.911 107.128H365.535C374.414 107.128 381.632 114.338 381.632 123.206C381.632 132.074 374.414 139.284 365.535 139.284H333.747L327.229 151.984ZM288.911 108.344C280.708 108.344 274.043 115.002 274.043 123.194C274.043 131.386 280.708 138.044 288.911 138.044H321.449L327.229 149.294L333.009 138.044H365.548C373.75 138.044 380.415 131.386 380.415 123.194C380.415 115.002 373.75 108.344 365.548 108.344H288.911Z" fill="white"/>
</g>
<g opacity="0.43">
<path opacity="0.43" d="M208.929 87.1202H241.086L247.235 99.0956L253.384 87.1202H285.541C294.088 87.1202 301.024 80.1928 301.024 71.6564C301.024 63.12 294.088 56.1927 285.541 56.1927H208.904C200.358 56.1927 193.422 63.12 193.422 71.6564C193.447 80.2051 200.37 87.1202 208.929 87.1202Z" fill="black"/>
<path opacity="0.43" d="M247.247 100.447L240.718 87.7466H208.929C200.05 87.7466 192.832 80.5367 192.832 71.6687C192.832 62.8007 200.05 55.5908 208.929 55.5908H285.554C294.432 55.5908 301.651 62.8007 301.651 71.6687C301.651 80.5367 294.432 87.7466 285.554 87.7466H253.765L247.247 100.447ZM208.929 56.8068C200.727 56.8068 194.062 63.4639 194.062 71.6564C194.062 79.8489 200.727 86.506 208.929 86.506H241.468L247.247 97.7446L253.027 86.506H285.566C293.768 86.506 300.433 79.8489 300.433 71.6564C300.433 63.4639 293.768 56.8068 285.566 56.8068H208.929Z" fill="white"/>
</g>
<path d="M113.096 159.047L108.263 153.335L110.145 151.751L114.978 157.462L113.096 159.047ZM101.118 144.897L93.9737 136.459L95.8552 134.875L103 143.313L101.118 144.897ZM86.829 128.021L79.6843 119.583L81.5658 117.999L88.7105 126.437L86.829 128.021ZM72.5272 111.133L65.3825 102.694L67.264 101.11L74.4087 109.548L72.5272 111.133ZM58.2378 94.2563L51.093 85.8182L52.9745 84.2338L60.1192 92.6719L58.2378 94.2563Z" fill="black"/>
<path d="M147.233 144.713L143.335 134.371L145.635 133.499L149.533 143.841L147.233 144.713ZM139.437 124.029L135.539 113.687L137.838 112.815L141.736 123.157L139.437 124.029ZM131.64 103.333L127.742 92.9912L130.042 92.1192L133.94 102.461L131.64 103.333ZM123.844 82.637L119.946 72.2951L122.245 71.4231L126.144 81.765L123.844 82.637ZM116.047 61.9532L112.149 51.6113L114.449 50.7393L118.347 61.0812L116.047 61.9532Z" fill="black"/>
<path d="M189.487 142.785L188.245 131.804L190.692 131.534L191.934 142.514L189.487 142.785ZM187.015 120.824L185.773 109.843L188.22 109.573L189.462 120.553L187.015 120.824ZM184.531 98.85L183.289 87.8694L185.736 87.5992L186.978 98.5798L184.531 98.85ZM182.059 76.8765L180.817 65.8959L183.264 65.6257L184.507 76.6063L182.059 76.8765ZM179.575 54.9153L178.333 43.9347L180.78 43.6645L182.022 54.6451L179.575 54.9153Z" fill="black"/>
<path d="M231.839 142.674L229.392 142.49L230.216 131.473L232.663 131.657L231.839 142.674ZM233.499 120.627L231.052 120.443L231.876 109.425L234.323 109.61L233.499 120.627ZM235.147 98.5798L232.7 98.3956L233.524 87.3781L235.971 87.5624L235.147 98.5798ZM236.807 76.5326L234.36 76.3484L235.184 65.3187L237.631 65.5029L236.807 76.5326ZM238.455 54.4854L236.008 54.3012L236.832 43.2838L239.279 43.468L238.455 54.4854Z" fill="black"/>
<path d="M270.735 144.431L268.411 143.632L272.027 133.18L274.351 133.978L270.735 144.431ZM277.954 123.538L275.63 122.74L279.245 112.287L281.569 113.086L277.954 123.538ZM285.172 102.633L282.848 101.835L286.464 91.3823L288.788 92.1806L285.172 102.633ZM292.403 81.7404L290.079 80.9421L293.694 70.4896L296.019 71.288L292.403 81.7404ZM299.622 60.8355L297.298 60.0372L300.913 49.5847L303.237 50.3831L299.622 60.8355Z" fill="black"/>
<path d="M300.36 152.832L298.638 151.075L305.119 144.701L306.84 146.457L300.36 152.832ZM314.735 138.707L313.014 136.95L320.908 129.2L322.63 130.957L314.735 138.707ZM330.513 123.194L328.791 121.438L336.686 113.687L338.407 115.444L330.513 123.194ZM346.29 107.693L344.568 105.937L352.451 98.1868L354.173 99.9432L346.29 107.693ZM362.067 92.1806L360.346 90.4242L368.241 82.6739L369.962 84.4303L362.067 92.1806Z" fill="black"/>
<path d="M151.513 100.582H97.5277C97.9704 99.1325 98.2164 97.5972 98.2164 95.9881C98.2164 87.4518 91.2807 80.5244 82.734 80.5244H6.09719C-2.44945 80.5244 -9.38513 87.4518 -9.38513 95.9881C-9.38513 104.525 -2.44945 111.452 6.09719 111.452H38.2547L44.4033 123.427L50.552 111.452H60.0947C59.6397 112.901 59.406 114.449 59.406 116.046C59.406 124.582 66.3417 131.509 74.8884 131.509H107.046L113.194 143.485L119.343 131.509H151.501C160.047 131.509 166.983 124.582 166.983 116.046C166.995 107.509 160.072 100.582 151.513 100.582Z" fill="#6D6D6D"/>
<path d="M113.194 144.836L106.665 132.136H74.8883C66.0097 132.136 58.7912 124.926 58.7912 116.058C58.7912 114.707 58.9633 113.38 59.2831 112.078H50.9455L44.4156 124.778L37.8857 112.078H6.09718C-2.78148 112.078 -10 104.856 -10 95.9881C-10 87.1201 -2.78148 79.9103 6.09718 79.9103H82.7217C91.6004 79.9103 98.8189 87.1201 98.8189 95.9881C98.8189 97.3392 98.6467 98.6657 98.327 99.9677H151.501C160.379 99.9677 167.598 107.178 167.598 116.046C167.598 124.914 160.379 132.123 151.501 132.123H119.712L113.194 144.836ZM50.1953 110.85H60.9309L60.685 111.648C60.2422 113.073 60.0209 114.559 60.0209 116.058C60.0209 124.25 66.686 130.907 74.8883 130.907H107.427L113.207 142.158L118.987 130.907H151.525C159.728 130.907 166.393 124.25 166.393 116.058C166.393 107.865 159.728 101.208 151.525 101.208H96.6915L96.9374 100.41C97.3801 98.9851 97.6015 97.4989 97.6015 96.0004C97.6015 87.808 90.9363 81.1508 82.734 81.1508H6.09718C-2.10513 81.1385 -8.77027 87.808 -8.77027 95.9881C-8.77027 104.168 -2.10513 110.838 6.09718 110.838H38.6359L44.4156 122.089L50.1953 110.85Z" fill="white"/>
<path d="M349.266 53.7976H381.423L387.572 65.7731L393.721 53.7976H425.878C434.425 53.7976 441.361 46.8702 441.361 38.3339C441.361 29.7975 434.425 22.8701 425.878 22.8701H349.241C340.695 22.8701 333.759 29.7975 333.759 38.3339C333.771 46.8702 340.707 53.7976 349.266 53.7976Z" fill="#6D6D6D"/>
<path d="M387.584 67.1119L381.055 54.4117H349.266C340.387 54.4117 333.169 47.2018 333.169 38.3338C333.169 29.4658 340.387 22.256 349.266 22.256H425.903C434.782 22.256 442 29.4658 442 38.3338C442 47.2018 434.782 54.4117 425.903 54.4117H394.114L387.584 67.1119ZM349.266 23.472C341.064 23.472 334.399 30.1291 334.399 38.3216C334.399 46.514 341.064 53.1712 349.266 53.1712H381.805L387.584 64.4097L393.364 53.1712H425.903C434.105 53.1712 440.77 46.514 440.77 38.3216C440.77 30.1291 434.105 23.472 425.903 23.472H349.266Z" fill="white"/>
</svg>
